<?xml version="1.0" standalone="no"?>
<!DOCTYPE svg PUBLIC "-//W3C//DTD SVG 20010904//EN"
 "http://www.w3.org/TR/2001/REC-SVG-20010904/DTD/svg10.dtd">
<svg version="1.0" xmlns="http://www.w3.org/2000/svg"
 width="109.000000pt" height="77.000000pt" viewBox="0 0 109.000000 77.000000"
 preserveAspectRatio="xMidYMid meet">

<g transform="translate(0.000000,77.000000) scale(0.100000,-0.100000)"
fill="#000000" stroke="none">
<path d="M230 615 c-8 -9 -8 -15 -2 -15 6 0 13 6 15 13 4 10 6 10 6 0 1 -18
31 -16 31 2 0 8 -8 15 -19 15 -10 0 -24 -7 -31 -15z"/>
<path d="M136 574 c-3 -9 -6 -31 -6 -49 l0 -34 55 6 c30 3 55 3 55 0 0 -3 -23
-22 -51 -43 -57 -42 -53 -54 19 -54 55 0 82 -15 82 -44 0 -51 -59 -55 -75 -6
-5 17 -15 20 -61 20 l-54 0 15 -37 c9 -20 20 -42 25 -48 12 -14 2 -48 -11 -39
-12 7 -11 -3 2 -28 8 -15 8 -23 -2 -32 -9 -8 -10 -8 -5 1 6 12 -22 33 -43 33
-26 0 -7 -22 39 -44 54 -26 59 -22 34 26 -13 25 -14 32 -2 39 7 5 22 6 33 3
11 -4 40 -9 64 -11 32 -4 45 -10 48 -24 7 -24 12 -24 40 3 21 19 24 20 40 6
10 -9 28 -19 41 -22 39 -13 25 22 -19 44 l-40 21 -21 -26 c-15 -19 -23 -23
-28 -14 -5 7 3 21 21 37 68 56 73 121 14 170 l-34 27 61 68 60 67 -47 0 c-28
0 -52 -6 -62 -15 -8 -9 -23 -13 -33 -10 -10 3 -21 1 -25 -5 -3 -5 -17 -10 -31
-10 -17 0 -24 5 -24 20 0 16 -7 20 -34 20 -22 0 -36 -6 -40 -16z"/>
<path d="M492 374 c-18 -8 -33 -40 -26 -58 3 -8 21 -20 40 -26 24 -8 34 -17
32 -28 -4 -23 -49 -28 -60 -8 -12 22 -28 20 -28 -3 0 -35 75 -44 103 -13 26
29 20 50 -19 69 -39 19 -45 32 -20 48 10 6 21 4 35 -10 24 -21 41 -12 25 13
-11 17 -57 26 -82 16z"/>
<path d="M622 310 c-15 -87 -15 -93 0 -88 6 2 16 24 22 49 9 34 16 44 31 44
18 0 20 -6 17 -47 -2 -30 0 -48 7 -48 14 0 23 39 19 81 -3 31 -6 34 -35 34
-28 0 -31 3 -26 22 3 16 1 23 -9 23 -9 0 -18 -22 -26 -70z"/>
<path d="M788 323 c-43 -49 -28 -103 28 -103 29 0 37 5 51 35 13 28 14 39 5
60 -14 30 -61 35 -84 8z m60 -34 c3 -29 -20 -54 -43 -45 -18 6 -19 29 -4 57
14 27 43 20 47 -12z"/>
<path d="M922 276 c-14 -76 -15 -106 -3 -106 5 0 12 13 16 28 5 24 10 28 33
24 39 -5 64 25 60 75 -3 38 -3 38 -49 40 l-46 2 -11 -63z m83 24 c8 -26 -12
-62 -33 -58 -21 4 -28 44 -12 64 17 20 38 18 45 -6z"/>
</g>
</svg>
